<svg width="475" height="476" viewBox="0 0 475 476" fill="none" xmlns="http://www.w3.org/2000/svg">
<path d="M379.851 444.326V351.235H436.033V361.235H391.124V392.689H433.124V402.689H391.124V434.326H436.761V444.326H379.851Z" fill="#B1B1B1"/>
<path d="M269.772 397.78C269.772 407.598 267.999 416.083 264.454 423.235C260.908 430.386 256.045 435.901 249.863 439.78C243.681 443.659 236.62 445.598 228.681 445.598C220.742 445.598 213.681 443.659 207.499 439.78C201.317 435.901 196.454 430.386 192.908 423.235C189.363 416.083 187.59 407.598 187.59 397.78C187.59 387.962 189.363 379.477 192.908 372.326C196.454 365.174 201.317 359.659 207.499 355.78C213.681 351.901 220.742 349.962 228.681 349.962C236.62 349.962 243.681 351.901 249.863 355.78C256.045 359.659 260.908 365.174 264.454 372.326C267.999 379.477 269.772 387.962 269.772 397.78ZM258.863 397.78C258.863 389.72 257.514 382.917 254.817 377.371C252.151 371.826 248.529 367.629 243.954 364.78C239.408 361.932 234.317 360.507 228.681 360.507C223.045 360.507 217.939 361.932 213.363 364.78C208.817 367.629 205.196 371.826 202.499 377.371C199.833 382.917 198.499 389.72 198.499 397.78C198.499 405.841 199.833 412.644 202.499 418.189C205.196 423.735 208.817 427.932 213.363 430.78C217.939 433.629 223.045 435.053 228.681 435.053C234.317 435.053 239.408 433.629 243.954 430.78C248.529 427.932 252.151 423.735 254.817 418.189C257.514 412.644 258.863 405.841 258.863 397.78Z" fill="#B1B1B1"/>
<path d="M25.9604 361.235V351.235H95.7785V361.235H66.5058V444.326H55.2331V361.235H25.9604Z" fill="white"/>
<path d="M445.715 220.662H434.442C433.776 217.419 432.609 214.571 430.942 212.116C429.306 209.662 427.306 207.601 424.942 205.934C422.609 204.238 420.018 202.965 417.17 202.116C414.321 201.268 411.351 200.844 408.261 200.844C402.624 200.844 397.518 202.268 392.942 205.116C388.397 207.965 384.776 212.162 382.079 217.707C379.412 223.253 378.079 230.056 378.079 238.116C378.079 246.177 379.412 252.98 382.079 258.525C384.776 264.071 388.397 268.268 392.942 271.116C397.518 273.965 402.624 275.389 408.261 275.389C411.351 275.389 414.321 274.965 417.17 274.116C420.018 273.268 422.609 272.01 424.942 270.344C427.306 268.647 429.306 266.571 430.942 264.116C432.609 261.631 433.776 258.783 434.442 255.571H445.715C444.867 260.328 443.321 264.586 441.079 268.344C438.836 272.101 436.048 275.298 432.715 277.934C429.382 280.541 425.639 282.525 421.488 283.889C417.367 285.253 412.957 285.934 408.261 285.934C400.321 285.934 393.261 283.995 387.079 280.116C380.897 276.238 376.033 270.722 372.488 263.571C368.942 256.419 367.17 247.934 367.17 238.116C367.17 228.298 368.942 219.813 372.488 212.662C376.033 205.51 380.897 199.995 387.079 196.116C393.261 192.238 400.321 190.298 408.261 190.298C412.957 190.298 417.367 190.98 421.488 192.344C425.639 193.707 429.382 195.707 432.715 198.344C436.048 200.95 438.836 204.131 441.079 207.889C443.321 211.616 444.867 215.874 445.715 220.662Z" fill="#B1B1B1"/>
<path d="M201.278 284.662H189.459L223.641 191.571H235.278L269.459 284.662H257.641L229.823 206.298H229.096L201.278 284.662ZM205.641 248.298H253.278V258.298H205.641V248.298Z" fill="#B1B1B1"/>
<path d="M25.9604 201.571V191.571H95.7785V201.571H66.5058V284.662H55.2331V201.571H25.9604Z" fill="white"/>
<path d="M445.715 60.9979H434.442C433.776 57.7554 432.609 54.9069 430.942 52.4524C429.306 49.9979 427.306 47.9373 424.942 46.2706C422.609 44.5736 420.018 43.3009 417.17 42.4524C414.321 41.6039 411.351 41.1797 408.261 41.1797C402.624 41.1797 397.518 42.6039 392.942 45.4524C388.397 48.3009 384.776 52.4979 382.079 58.0433C379.412 63.5888 378.079 70.3918 378.079 78.4524C378.079 86.513 379.412 93.316 382.079 98.8615C384.776 104.407 388.397 108.604 392.942 111.452C397.518 114.301 402.624 115.725 408.261 115.725C411.351 115.725 414.321 115.301 417.17 114.452C420.018 113.604 422.609 112.346 424.942 110.68C427.306 108.983 429.306 106.907 430.942 104.452C432.609 101.968 433.776 99.1191 434.442 95.9069H445.715C444.867 100.665 443.321 104.922 441.079 108.68C438.836 112.437 436.048 115.634 432.715 118.271C429.382 120.877 425.639 122.861 421.488 124.225C417.367 125.589 412.957 126.271 408.261 126.271C400.321 126.271 393.261 124.331 387.079 120.452C380.897 116.574 376.033 111.058 372.488 103.907C368.942 96.7554 367.17 88.2706 367.17 78.4524C367.17 68.6342 368.942 60.1494 372.488 52.9979C376.033 45.8463 380.897 40.3312 387.079 36.4524C393.261 32.5736 400.321 30.6342 408.261 30.6342C412.957 30.6342 417.367 31.316 421.488 32.6797C425.639 34.0433 429.382 36.0433 432.715 38.6797C436.048 41.2857 438.836 44.4676 441.079 48.2251C443.321 51.9524 444.867 56.21 445.715 60.9979Z" fill="#B1B1B1"/>
<path d="M234.312 31.907V124.998H223.039V31.907H234.312Z" fill="#B1B1B1"/>
<path d="M25.9604 41.9069V31.907L95.7785 31.907V41.9069H66.5058V124.998H55.2331V41.9069H25.9604Z" fill="white"/>
<line y1="314.5" x2="475" y2="314.5" stroke="#B3B3B3"/>
<line y1="155.5" x2="475" y2="155.5" stroke="#B3B3B3"/>
<line x1="324.5" y1="1" x2="324.5" y2="475.002" stroke="#B3B3B3"/>
<line x1="143.5" y1="1" x2="143.5" y2="475.002" stroke="#B3B3B3"/>
</svg>
